<svg version="1" xmlns="http://www.w3.org/2000/svg" width="890.667" height="890.667" viewBox="0 0 668.000000 668.000000"><path d="M167.2 144.3c-.7.8-1.4 5-1.6 9.3-.5 10-1.9 13.2-6.1 14-4.3.8-9.8 4.6-18.2 12.4-3.8 3.6-8.6 7.8-10.7 9.5-6.1 4.7-10.6 9.6-10.6 11.6 0 1-1.1 4.3-2.4 7.2-2.2 5-3.8 6.8-9.6 10.7-1.2.8-3.9 2.8-5.9 4.4-6.6 5.2-21.6 15.3-23.6 16-1.1.4-3.5 1.9-5.2 3.4l-3.3 2.7 1.7 3.5c1 1.9 2 3.7 2.3 4 1 .8 2.1 4.2 2.6 8 .6 4.2 2.1 5.9 6 6.6 5.6.9 20.9 5.6 24.9 7.7 2.2 1.1 5.3 3.1 6.9 4.5 3.1 2.5 6 3.8 9.9 4.6 1.2.3 4.7 1 7.7 1.6 5.3 1.1 8.4 1.5 16 2.4 1.9.3 5.5.7 8 1.1 4.4.6 8.4 1.1 16.5 2 7.6.8 11.8 2.7 25.5 11.5 2.5 1.7 5.2 3.3 6 3.7.8.3 1.7.9 2 1.3.3.3 2.3 1.7 4.5 3 5 3.1 7.9 5.4 13 10.5 4.9 5 7.7 8.5 6.7 8.5-.4 0-.2.4.4.8.6.4 4.6 5.1 8.7 10.5 7.5 9.5 9.5 11.9 18.7 22.1 7.1 8 20.4 20.7 21.5 20.6.3 0 1.6 1 2.8 2.2 1.2 1.3 5.8 5.2 10.2 8.7 11.5 9.2 20.7 19 22.7 24.2.9 2.4 2.8 8.4 4.3 13.4 1.5 4.9 3.5 11.7 4.5 15 4.2 13.6 6.4 21.1 6.6 22 3 12.4 4.4 20.5 4.8 26.1.3 3.8.5 7.4.6 7.9.7 3.6-4.6 10-10.1 12.2-5.6 2.2-6.5 7.9-1.6 9.9 1.7.8 49.4 1.2 59 .5 1.8-.1 5.1-6.1 6-11.1.3-1.4 1-4.5 1.6-7 4.7-20.5 6.9-58.7 4.7-80.5-.4-3.9-.9-10.5-1.2-14.8-.5-7.2-.4-7.7 1.5-7.7 1.1 0 3 .4 4.4.9 1.3.5 4.1 1.2 6.1 1.5 2.1.4 4.1.8 4.5 1 1.8 1.2 13.3 1.9 26.6 1.8 11.5 0 18.2-.7 28.5-2.6 7.4-1.4 14.9-2.8 16.5-3.1 1.7-.3 5.1-1 7.8-1.6 5.9-1.4 7.2-.9 9 3.3.8 1.8 3.4 7.8 5.8 13.3 2.4 5.5 5.9 12.7 7.8 16 3.3 5.9 11.8 18.5 13.1 19.5 2.1 1.6 11.9 17.2 13.4 21.3 2.6 7.1 2.7 17.3.2 26.7-.3.8-.5 2.1-.5 2.8-.2 2.3-9.1 10.2-11.6 10.2s-6.5 3.4-6.5 5.6c0 .6.8 2.2 1.8 3.4 1.7 2.2 1.9 2.2 37.2 2.2h35.4l1.9-2.3c1.8-2.2 1.9-3.6 1.3-19.4-.3-9.4-.8-20.6-1-25-1.3-22.4-1.7-28.4-2.1-33-.3-2.8-.7-8.8-1-13.5-.3-4.7-.8-11.2-1-14.5-.3-3.3-.7-8.7-1-12-.5-7.2-1.4-17.4-2.1-23.5-.3-2.5-.7-6.8-.9-9.5-.3-2.8-.7-6.6-.9-8.5-.3-1.9-.8-6-1.2-9-.3-3-.8-6.4-1-7.5-.3-1.1-.6-3.4-.8-5-2-14.1-7.9-35.8-10.7-39.1-.6-.8-.9-1.4-.5-1.4 1 0-7.5-13.3-12.5-19.5-2.7-3.3-5.3-6.5-5.7-7-1-1.4-4.5-7.1-7.2-12-13-23.4-15.5-27.1-23.5-35.1-6.2-6.3-11.1-9.4-20-12.6-4.7-1.8-17.8-5.3-23.5-6.4-1.4-.2-3.6-.7-5-.9-1.4-.3-4.3-.7-6.5-1-2.2-.3-5.1-.8-6.5-1.1-1.4-.2-3.5-.6-4.7-.8-1.2-.3-5.3-.7-9-1-3.7-.4-7.9-.8-9.3-1.1-3.6-.7-18.7-1.6-32.5-2-6.6-.2-13-.6-14.2-.8-5.9-1.5-15-4-16.8-4.7-1.1-.5-6.2-2.3-11.4-4-5.2-1.8-10.6-3.7-12-4.3-1.4-.6-2.8-1.1-3.1-1.2-.3-.1-1.8-.7-3.5-1.4-1.6-.6-5.5-2.1-8.5-3.2s-6.8-2.7-8.5-3.4c-1.6-.8-7.3-2.9-12.5-4.6-10.3-3.4-17.4-3.8-42-2.4-25.8 1.5-32 1.1-43.5-2.5-1.6-.6-8.2-2.6-14.5-4.6-6.3-2-13.7-4.3-16.4-5.2-2.8-.9-6.2-2.7-7.7-4.1-11.5-10.9-23.6-16.6-26.7-12.8z"/><path d="M227.9 346.7c-.2.9-.2.5.7 6.9.3 2.7.8 5.2 1 5.5.1.3.6 2.8 1 5.5.3 2.7.8 5.8 1.1 6.9.2 1.1.6 3.6.8 5.5.5 4.4 1.4 10.6 2.2 14.5.3 1.6.7 3.9.9 5 .1 1.1.9 5.4 1.8 9.5.8 4.1 1.7 8.6 2 10 .3 1.4.8 3.6 1.1 5 .3 1.4.8 3.8 1.1 5.5.3 1.6 1.2 6.4 2.1 10.5.8 4.1 1.7 8.6 1.9 10 .3 1.4.7 3.3 1 4.2 3.4 11.4 3.9 28.5 1 39.3-3.6 13.4-11.3 25.5-16.1 25.5-2.8 0-3 .1-4.2 2.3-1.4 2.5-.7 5.7 1.6 7.4 2 1.4 59.4 1.7 62.2.3 1.7-.9 3.4-5 4.4-10.1.3-1.3.7-3.5 1-4.9.3-1.4.7-4.8 1-7.5.3-2.8.8-6.4 1.1-8 .7-4 1.1-6.7 2-14.5.4-3.6.8-7.9 1-9.5.2-1.7.6-6.2.9-10 .3-3.9.7-8.6 1-10.5.2-1.9.7-9.4 1.1-16.7l.6-13.2-3.9-4.1c-2.2-2.2-4.5-4-5.1-4-.6 0-1.2-.3-1.4-.8-.1-.4-2.5-2.3-5.3-4.2-2.7-1.9-5.5-3.9-6.1-4.5-.6-.5-3.9-3.4-7.4-6.4-11.8-10.3-18.4-17.3-32.2-34.5-1-1.1-2.3-2.8-3-3.6-.7-.8-3.2-4-5.5-7.2-3.8-5.1-7.1-7.3-7.4-5.1zM482 416.7c-4.7 1.3-9.8 2.6-11.5 2.9-1.6.2-4.6.9-6.6 1.4-12 3.2-28.6 3.1-46.7-.4-6.6-1.3-7.3-1.2-8.1.3-1 1.8 1.8 11.1 4.2 14 .7.9 1.9 2.8 2.7 4.3.7 1.6 1.7 2.8 2.2 2.8.4 0 .8.9.8 2s.4 2 .8 2c.7 0 5.9 10.3 6.8 13.5.2.5 1.2 3.9 2.2 7.5 3.4 11.5 5.2 34.3 3.3 40.2-1.2 3.7-6 7.4-10.5 8.2-5.5 1-7.9 5.9-4.5 9.4 1.8 2 2.9 2.1 29.1 2.1 18.2 0 27.7-.4 28.6-1.1 1.7-1.4 5.1-9 6.8-15.1 3.8-13.2 4.4-15.5 4.9-18.7.3-2 .8-4.7 1-6 1.8-8.9 2.8-17.5 3.9-32.3 1.5-19.6 1.9-23.5 2.5-27.2 1.2-6.7.7-10.7-1.5-11.5-1-.4-5.7.4-10.4 1.7z"/></svg>