<?xml version="1.0" encoding="utf-8"?>
<!-- Generator: Adobe Illustrator 22.0.1, SVG Export Plug-In . SVG Version: 6.00 Build 0)  -->
<svg version="1.1" id="Ebene_1" xmlns="http://www.w3.org/2000/svg" xmlns:xlink="http://www.w3.org/1999/xlink" x="0px" y="0px"
	 viewBox="0 0 166.9 128.8" style="enable-background:new 0 0 166.9 128.8;" xml:space="preserve">
<style type="text/css">
	.st0{fill:#654472;}
	.st1{fill:url(#SVGID_1_);}
</style>
<g>
	<path class="st0" d="M123.4,84.7c-0.1-1.1-6,1.6-11.4,1.9c-5.5,0.3-9.2-1.2-9.8-0.9c-0.5,0.3-0.1,2.1,0.9,3.7s3,4.5,3.9,7.7
		c0.9,3.2,1.1,6.7,1.1,9.5c0,2.2-2.2,3-3,3.1c-0.8,0-1.4,0.6-1.4,1.4c0,0.8,0.6,1.4,1.4,1.4c1.1,0,2.6,0,2.6,0c0.2,0,9.3,0,10.4,0
		s2.7-4.7,3.7-10.4c1-5.7,1.2-12.4,1.3-13.4C123.4,87.5,123.6,85.8,123.4,84.7z"/>
	<radialGradient id="SVGID_1_" cx="88.9616" cy="109.3961" r="114.849" gradientUnits="userSpaceOnUse">
		<stop  offset="3.370570e-02" style="stop-color:#654472"/>
		<stop  offset="0.1946" style="stop-color:#754371"/>
		<stop  offset="0.5211" style="stop-color:#9C4070"/>
		<stop  offset="0.9137" style="stop-color:#CE356F"/>
	</radialGradient>
	<path class="st1" d="M146.8,70.4c-1.4-10.8-3.2-14.8-6.9-19c-3.6-4.2-5.5-11.8-11.2-15.1c-5.7-3.3-22.3-4.8-27.5-4.6
		c-5.2,0.2-18.9-6.2-23.5-7.5c-3.5-0.9-14.5,0.7-17.3,0c-1.7-0.4-11.3-3.4-11.5-3.6c0,0-3.2-2.9-4.5-3.5c-1.3-0.7-3.3-1.1-3.2,0.9
		c0.1,1.9-0.1,3.8-0.6,4.2c-0.5,0.5-2.1,0.1-5.3,3.4c-3.3,3.4-5.5,3.8-5.6,5.9c0,0.4-1.1,2.9-1.7,3.2c-0.6,0.2-7,5.3-8.3,5.8
		c-1.2,0.5-2.3,1.5-2.3,1.5c-0.2,1.2,1.5,2,1.5,3.9c0,1.9,1.6,1.8,2.5,1.9c0.6,0.1,2.6,1,3.6,1.1c1,0.1,2.9,1.3,4.2,2.4
		c1.3,1.1,14.3,2.4,15.3,2.5c0.7,0.1,10.5,5.9,11.8,7.9c0.1,0.1,6.9,9.8,13.1,14.9c2.8,2.3,5.2,4.2,6.8,5.7c2.5,2.1,3,4.9,3.5,6.6
		c0.5,1.7,3,9.8,3.4,11.7c0.4,2,0.9,5.8,0.7,6.7c-0.3,0.9-1.6,2.2-2.3,2.3c-0.7,0.1-1.4,0.6-1.4,1.4c0,0.8,0.6,1.4,1.4,1.4
		c0,0,13,0,14.1,0c1.1,0,2.1-3.9,2.9-10.5c0.6-5,0.5-12.8,0.2-14.9c-0.1-1-0.3-2.6-0.4-4.5c0-0.3,0.3-0.6,0.7-0.5
		c2,0.7,6.8,1.7,11,1.5c4.4-0.2,12-1.9,12.8-2.1c0.8-0.2,1.6-0.1,1.9,0.8c0.3,0.8,2.3,6.4,5.2,10.4c2.9,4,3.6,4.3,4.8,7.1
		c1.1,2.8,0.4,7.1-0.6,8.4c-1,1.3-1.8,1.6-2.5,1.7c-0.8,0.1-1.4,0.6-1.4,1.4c0,0.8,0.6,1.4,1.4,1.4c0,0,0,0,0,0c0,0,0,0,0,0
		c0,0,15.7,0,16.7,0c1,0,1.2-0.8,1.3-1.6C149.9,108.1,148.2,81.1,146.8,70.4z"/>
	<path class="st0" d="M76.1,86.9c-0.1-0.5-0.1-1.2-0.8-1.8c-2-1.7-3-1.8-7.8-6.2c-4.8-4.4-9.4-10.9-9.9-11.5c-0.5-0.6-1-0.1-0.9,0.3
		c0.5,3.1,1.3,7,1.5,9.3c0.3,2.4,3.1,15.8,3.9,19.7s-0.9,8.9-1.8,10.5c-0.9,1.6-1.6,2.3-2.5,2.5c-0.9,0.1-1.4,0.6-1.4,1.4
		c0,0.8,0.6,1.4,1.4,1.4c0,0,12.6,0,14.3,0s1.9-4.9,2.5-8.6C75.3,99.3,76.2,87.4,76.1,86.9z"/>
</g>
</svg>
